<?xml version="1.0" encoding="utf-8"?>
<!-- Generator: Adobe Illustrator 26.0.3, SVG Export Plug-In . SVG Version: 6.00 Build 0)  -->
<svg version="1.1" id="Слой_1" xmlns="http://www.w3.org/2000/svg" xmlns:xlink="http://www.w3.org/1999/xlink" x="0px" y="0px"
	 viewBox="0 0 166.6 471.3" style="enable-background:new 0 0 166.6 471.3;" xml:space="preserve">
<style type="text/css">
	.st0{fill:#0A0A0A;}
	.st1{fill:none;stroke:#000000;stroke-miterlimit:10;}
</style>
<g>
	<path class="st0" d="M166.6,0v235.6c0,28.4-4.8,56.5-14.2,83.3c-4.6,13-10.3,25.6-17,37.7c-9.1,16.4-19.9,31.7-32.4,45.6
		c-6.2,6.9-12.7,13.5-19.7,19.7c-21.5,19.2-46.1,34.6-72.8,45.4c-3.4,1.4-6.9,2.7-10.5,4V235.6c0-61.5,22.6-120.8,63.6-166.6
		c6.2-6.9,12.7-13.5,19.7-19.7c21.5-19.2,46.1-34.6,72.8-45.4C159.6,2.6,163.1,1.2,166.6,0z"/>
	<path class="st1" d="M166.6,0v235.6c0,28.4-4.8,56.5-14.2,83.3c-4.6,13-10.3,25.6-17,37.7c-9.1,16.4-19.9,31.7-32.4,45.6
		c-6.2,6.9-12.7,13.5-19.7,19.7c-21.5,19.2-46.1,34.6-72.8,45.4c-3.4,1.4-6.9,2.7-10.5,4V235.6c0-61.5,22.6-120.8,63.6-166.6
		c6.2-6.9,12.7-13.5,19.7-19.7c21.5-19.2,46.1-34.6,72.8-45.4C159.6,2.6,163.1,1.2,166.6,0z"/>
</g>
</svg>
